PathFileType	4	(X/Y/Z)	C:/Users/beibeiliu/ov580/test_trc/capture2\sequence.26_training_dense_right.trc
DataRate	CameraRate	NumFrames	NumMarkers	Units	OrigDataRate	OrigDataStartFrame	OrigNumFrames
120	120	12	19	mm	120	144	383
Frame#	Time	ThumbCMC			ThumbMCP			ThumbIP			ThumbTip			IndexMCP			IndexPIP			IndexTip			MiddleMCP			MiddlePIP			MiddleTip			RingMCP			RingPIP			RingTip			PinkyMCP			PinkyPIP			PinkyTip			BackHand1			BackHand2			BackHand3	
		X0	Y0	Z0	X1	Y1	Z1	X2	Y2	Z2	X3	Y3	Z3	X4	Y4	Z4	X5	Y5	Z5	X6	Y6	Z6	X7	Y7	Z7	X8	Y8	Z8	X9	Y9	Z9	X10	Y10	Z10	X11	Y11	Z11	X12	Y12	Z12	X13	Y13	Z13	X14	Y14	Z14	X15	Y15	Z15	X16	Y16	Z16	X17	Y17	Z17	X18	Y18	Z18	
143	1.19167	109.406	42.8895	7.82383	113.851	15.224	-10.4714	132.629	2.96056	-33.8414	159.354	5.19249	-41.3326	134.023	57.2704	-53.7873	138.324	53.4323	-81.697	148.927	55.9556	-102.056	164.339	57.6251	-50.6977	176.747	50.275	-72.7496	189.868	43.2685	-100.069	176.048	34.355	-36.2968	169.685	0.526332	-28.7396	149.152	4.55196	-4.97354	185.58	28.7175	-15.3955	169.267	5.38215	-4.97604	143.402	18.1775	12.408	163.165	73.1585	-0.425468	151.748	78.0167	33.9545	129.585	73.8201	4.97712	
144	1.2	109.001	42.621	11.4706	115.895	14.1862	-12.827	134.493	5.1396	-32.9038	158.384	3.33726	-42.7625	137.401	57.3033	-58.471	145.067	53.8583	-82.1325	147.949	55.5341	-102.303	162.923	56.6269	-52.1528	177.795	49.0336	-76.3511	189.825	44.0534	-99.3312	178.786	31.1508	-39.3548	174.655	2.999	-33.4505	151.415	4.29211	-4.31463	188.015	25.6906	-16.7996	166.288	4.23835	-5.6555	147.556	16.0127	10.9141	166.039	69.7928	-0.491956	152.925	78.2665	32.8894	131.863	76.0328	2.49314	
145	1.20833	111.855	42.1008	8.15931	120.651	16.1779	-15.6705	135.382	3.67561	-35.6443	160.663	4.1037	-45.2249	143.089	57.0592	-59.0929	146.273	54.5761	-80.7141	152.648	55.7853	-104.62	166.975	57.4998	-52.9339	178.374	50.3454	-76.6307	192.73	44.2853	-99.899	179.942	31.841	-41.1257	173.355	0.391551	-35.8064	154.314	1.95945	-7.11512	187.751	26.5235	-19.1347	170.924	3.56548	-9.2931	150.611	15.5997	14.1887	170.597	70.2283	3.12035	156.895	76.4916	30.4978	136.138	75.4628	3.63933	
146	1.21667	114.382	42.1063	3.238	121.308	17.3598	-14.7341	138.468	6.3422	-38.4769	160.544	4.35385	-45.2051	142.249	58.6603	-62.1544	146.326	54.8074	-80.8215	160.193	56.1724	-106.596	168.62	56.3741	-54.8741	180.625	49.8268	-79.0464	194.706	44.1384	-105.208	182.426	32.8364	-40.3413	175.826	1.07226	-38.2951	156.494	-1.91357	-12.4818	190.258	22.6393	-22.159	171.176	2.25788	-11.9034	149.455	15.5049	6.45957	169.712	71.1579	-2.61063	160.133	73.8261	28.5608	135.95	73.5253	4.28124	
147	1.225	113.529	41.3491	2.64028	121.677	16.7257	-16.658	137.992	7.1049	-38.3463	161.882	6.40876	-46.6714	147.477	58.9636	-58.2724	153.304	56.9121	-82.2539	163.523	57.3616	-106.774	173.251	57.7417	-56.9876	181.08	51.5758	-82.9188	191.259	45.6093	-108.278	183.207	35.0014	-43.4964	181.35	4.27539	-45.0299	160.385	-5.6914	-19.5622	191.046	29.161	-23.6705	179.258	2.15893	-17.9614	155.218	4.89318	3.34237	170.374	70.6587	0.364756	159.754	73.1006	26.2547	138.152	73.1284	4.87806	
148	1.23333	114.668	42.4741	3.68686	120.291	17.0602	-20.3093	137.007	7.55574	-43.436	159.765	5.40449	-50.8316	147.042	61.1286	-60.9132	156.752	57.6585	-84.6446	164.654	59.376	-107.175	170.457	58.9946	-58.2782	180.741	53.6245	-78.7063	193.493	46.0527	-106.889	184.197	39.3342	-47.6271	186.917	9.68118	-52.9306	165.646	-7.79247	-32.9638	195.39	29.973	-28.8223	185.223	1.13843	-24.7103	159.033	0.704126	-5.6658	172.44	69.3424	-0.444991	159.369	74.1124	28.4368	138.863	75.3214	4.5777	
149	1.24167	110.342	41.8339	5.14381	116.119	19.8833	-15.757	130.772	8.11664	-43.6372	156.168	7.41667	-50.0991	148.84	60.6423	-56.6669	156.822	56.7765	-78.6105	168.627	57.9509	-99.744	167.599	59.4539	-55.217	177.69	52.2049	-79.2994	191.783	45.159	-105.755	183.326	45.7975	-46.7207	189.744	20.596	-59.6037	174.622	-10.8787	-47.0816	196.094	35.8879	-30.2816	192.711	7.66407	-36.4001	168.731	-7.16477	-20.6265	169.084	71.2354	1.82848	160.555	74.5859	30.1003	134.271	74.0156	2.67744	
150	1.25	108.97	44.6323	8.40774	113.486	23.3466	-17.6477	124.279	13.195	-39.9646	146.212	8.81489	-55.9897	144.417	60.0408	-55.6955	152.077	56.3874	-77.9448	166.639	54.3319	-103.557	168.31	58.2566	-55.321	178.405	50.0034	-79.4819	189.975	41.754	-104.643	183.551	50.8683	-42.9177	192.451	27.9106	-65.839	186.501	0.177103	-69.4212	193.489	43.6162	-27.1276	200.18	21.8341	-43.3668	184.815	-8.41614	-41.2598	167.51	71.7855	1.63226	157.851	74.8584	29.3741	134.774	74.3833	4.52868	
151	1.25833	105.11	47.4676	8.89889	104.926	26.6596	-14.3714	119.741	20.0376	-38.9959	136.936	13.135	-54.0358	139.994	58.9374	-53.3353	152.204	52.7551	-73.4884	166.188	50.0515	-98.9454	164.373	58.0603	-50.2784	172.639	49.3551	-74.8841	181.092	40.5388	-99.9935	184.176	53.1644	-44.015	192.448	38.1399	-65.7802	194.758	16.3122	-79.6735	194.803	47.7458	-23.4537	199.838	30.3105	-46.1567	196.22	2.35386	-57.5911	163.695	71.7519	5.26402	157.625	75.477	37.1558	131.25	74.8708	8.11589	
152	1.26667	104.964	49.3891	15.5662	100.063	30.9344	-8.86204	109.978	21.6056	-39.7178	125.517	16.8433	-54.7287	139.625	58.3278	-49.0562	147.604	51.2803	-72.3784	160.664	46.3879	-93.7286	162.267	57.2563	-52.5234	167.012	47.6529	-74.0057	181.229	38.8681	-96.8429	177.536	54.3567	-38.2621	183.974	45.3132	-59.7774	191.601	30.7607	-82.5618	187.515	48.23	-21.727	199.126	34.6024	-44.9723	201.745	20.7133	-62.8012	165.431	73.4853	10.0967	150.567	75.0112	38.603	126.708	75.6639	13.2043	
153	1.275	99.7536	52.503	21.3257	95.3511	35.136	-6.44585	104.396	26.2089	-35.8567	116.477	17.7487	-52.1498	133.114	58.3313	-50.0812	143.088	50.4048	-70.2561	156.347	44.3397	-89.8168	154.672	58.3586	-45.6754	166.219	46.2651	-71.9079	173.993	37.4471	-97.5932	173.023	54.115	-39.6478	182.241	44.4913	-59.1356	191.822	35.3406	-81.0904	185.113	47.9359	-20.4307	193.817	37.0804	-41.5293	199	28.567	-64.4922	162.183	72.4249	10.738	153.037	77.6735	37.2695	126.815	76.9738	16.8912	
154	1.28333	99.0084	54.1496	24.3158	92.6022	38.1993	-3.22381	100.09	28.1757	-29.4144	111.96	20.4002	-49.4251	133.451	57.2897	-47.7915	138.764	49.5345	-69.8574	152.064	42.0856	-88.5885	154.41	56.6518	-44.4184	161.77	46.5117	-65.5502	170.378	36.9909	-93.9233	171.077	52.9847	-32.9883	181.672	43.7931	-52.6647	185.926	37.1469	-77.7538	183.744	45.7273	-15.6826	190.84	37.6282	-34.7175	200.766	33.9149	-56.4045	157.162	70.3309	15.0049	153.085	75.8547	43.0726	123.891	79.3501	17.3936	
